<svg t="1618388472966" class="icon" viewBox="0 0 1024 1024" version="1.1" xmlns="http://www.w3.org/2000/svg" p-id="3868" width="200" height="200"><path d="M896 160.01024l-768 0c-70.69696 0-128 57.344-128 128l0 416.01024c0 70.69696 57.30304 128 128 128l768 0c70.69696 0 128-57.30304 128-128l0-416.01024c0-70.656-57.30304-128-128-128zM64 328.00768l223.96928 167.99744-223.96928 167.99744 0-335.99488zM960 704c0 35.328-28.73344 64-64 64l-768 0c-35.28704 0-64-28.672-64-64l250.63424-188.0064 139.776 104.8576c17.05984 12.73856 37.31456 19.21024 57.61024 19.21024 20.25472 0 40.50944-6.43072 57.56928-19.21024l139.81696-104.8576 250.63424 188.0064zM960 664.00256l-224.01024-167.99744 224.01024-167.99744 0 335.99488zM550.35904 595.27168c-11.1616 8.37632-24.41216 12.8-38.35904 12.8s-27.2384-4.44416-38.4-12.8l-409.6-307.26144c0-35.28704 28.71296-64 64-64l768 0c35.26656 0 64 28.71296 64 64l-409.64096 307.26144z" p-id="3869" fill="#e6e6e6"></path></svg>
