<svg t="1618405717118" class="icon" viewBox="0 0 1024 1024" version="1.1" xmlns="http://www.w3.org/2000/svg" p-id="2816" width="200" height="200"><path d="M633.877333 112.810667c-148.16 0-268.693333 114.154667-268.693333 254.485333 0 56.298667 19.626667 108.202667 52.437333 150.4L137.045333 799.274667a29.013333 29.013333 0 0 0 20.565334 49.514666c7.445333 0 14.890667-2.837333 20.565333-8.533333l83.648-83.946667 154.666667 136.341334a28.949333 28.949333 0 0 0 40.96-2.581334 29.013333 29.013333 0 0 0-2.581334-40.96l-152.021333-133.994666 62.677333-62.890667 103.850667 86.165333a28.928 28.928 0 0 0 40.874667-3.797333 29.013333 29.013333 0 0 0-3.797334-40.874667l-99.776-82.794666 51.392-51.584a276.053333 276.053333 0 0 0 175.808 62.485333c148.16 0 268.693333-114.154667 268.693334-254.485333S782.016 112.810667 633.877333 112.810667z m0 450.944c-116.16 0-210.645333-88.128-210.645333-196.437334s94.485333-196.437333 210.645333-196.437333 210.645333 88.128 210.645334 196.437333-94.506667 196.437333-210.645334 196.437334z" fill="#e6e6e6" p-id="2817"></path></svg>
